<mxfile host="app.diagrams.net" agent="Mozilla/5.0 (Windows NT 10.0; Win64; x64) AppleWebKit/537.36 (KHTML, like Gecko) Chrome/138.0.0.0 Safari/537.36" version="28.0.6">
  <diagram name="PÃ¡gina-1" id="OGpXJ2_gHz8o-I45BumO">
    <mxGraphModel grid="1" page="1" gridSize="10" guides="1" tooltips="1" connect="1" arrows="1" fold="1" pageScale="1" pageWidth="827" pageHeight="1169" math="0" shadow="0">
      <root>
        <mxCell id="0" />
        <mxCell id="1" parent="0" />
        <mxCell id="jzuiydlJmcUlRcTd3qDT-1" value="" style="html=1;verticalAlign=bottom;startArrow=oval;startFill=1;endArrow=block;startSize=8;curved=0;rounded=0;" edge="1" parent="1">
          <mxGeometry width="60" relative="1" as="geometry">
            <mxPoint x="400" y="40" as="sourcePoint" />
            <mxPoint x="400" y="120" as="targetPoint" />
          </mxGeometry>
        </mxCell>
        <mxCell id="jzuiydlJmcUlRcTd3qDT-6" style="edgeStyle=orthogonalEdgeStyle;rounded=0;orthogonalLoop=1;jettySize=auto;html=1;" edge="1" parent="1" source="jzuiydlJmcUlRcTd3qDT-2" target="jzuiydlJmcUlRcTd3qDT-4">
          <mxGeometry relative="1" as="geometry" />
        </mxCell>
        <mxCell id="jzuiydlJmcUlRcTd3qDT-2" value="Ref" style="shape=umlFrame;whiteSpace=wrap;html=1;pointerEvents=0;" vertex="1" parent="1">
          <mxGeometry x="290" y="120" width="250" height="90" as="geometry" />
        </mxCell>
        <mxCell id="jzuiydlJmcUlRcTd3qDT-3" value="llenar Formulario&amp;nbsp;" style="text;html=1;align=center;verticalAlign=middle;resizable=0;points=[];autosize=1;strokeColor=none;fillColor=none;" vertex="1" parent="1">
          <mxGeometry x="340" y="158" width="120" height="30" as="geometry" />
        </mxCell>
        <mxCell id="jzuiydlJmcUlRcTd3qDT-8" style="edgeStyle=orthogonalEdgeStyle;rounded=0;orthogonalLoop=1;jettySize=auto;html=1;" edge="1" parent="1" source="jzuiydlJmcUlRcTd3qDT-4" target="jzuiydlJmcUlRcTd3qDT-7">
          <mxGeometry relative="1" as="geometry" />
        </mxCell>
        <mxCell id="jzuiydlJmcUlRcTd3qDT-4" value="Ref" style="shape=umlFrame;whiteSpace=wrap;html=1;pointerEvents=0;" vertex="1" parent="1">
          <mxGeometry x="290" y="300" width="250" height="90" as="geometry" />
        </mxCell>
        <mxCell id="jzuiydlJmcUlRcTd3qDT-5" value="Verificar disponibilidad" style="text;html=1;align=center;verticalAlign=middle;resizable=0;points=[];autosize=1;strokeColor=none;fillColor=none;" vertex="1" parent="1">
          <mxGeometry x="330" y="338" width="140" height="30" as="geometry" />
        </mxCell>
        <mxCell id="jzuiydlJmcUlRcTd3qDT-16" style="edgeStyle=orthogonalEdgeStyle;rounded=0;orthogonalLoop=1;jettySize=auto;html=1;" edge="1" parent="1" source="jzuiydlJmcUlRcTd3qDT-7" target="jzuiydlJmcUlRcTd3qDT-11">
          <mxGeometry relative="1" as="geometry" />
        </mxCell>
        <mxCell id="jzuiydlJmcUlRcTd3qDT-7" value="" style="rhombus;whiteSpace=wrap;html=1;" vertex="1" parent="1">
          <mxGeometry x="383.5" y="470" width="63" height="50" as="geometry" />
        </mxCell>
        <mxCell id="jzuiydlJmcUlRcTd3qDT-18" style="edgeStyle=orthogonalEdgeStyle;rounded=0;orthogonalLoop=1;jettySize=auto;html=1;" edge="1" parent="1" source="jzuiydlJmcUlRcTd3qDT-9" target="jzuiydlJmcUlRcTd3qDT-17">
          <mxGeometry relative="1" as="geometry" />
        </mxCell>
        <mxCell id="jzuiydlJmcUlRcTd3qDT-9" value="Sd Cita" style="shape=umlFrame;whiteSpace=wrap;html=1;pointerEvents=0;" vertex="1" parent="1">
          <mxGeometry x="-130" y="560" width="470" height="330" as="geometry" />
        </mxCell>
        <mxCell id="jzuiydlJmcUlRcTd3qDT-10" value="&lt;div&gt;&lt;br&gt;&lt;/div&gt;&lt;div&gt;Cofirmas cita&amp;nbsp;&lt;/div&gt;" style="text;html=1;align=center;verticalAlign=middle;resizable=0;points=[];autosize=1;strokeColor=none;fillColor=none;" vertex="1" parent="1">
          <mxGeometry x="30" y="686" width="100" height="40" as="geometry" />
        </mxCell>
        <mxCell id="jzuiydlJmcUlRcTd3qDT-22" style="edgeStyle=orthogonalEdgeStyle;rounded=0;orthogonalLoop=1;jettySize=auto;html=1;entryX=0.5;entryY=0;entryDx=0;entryDy=0;" edge="1" parent="1" source="jzuiydlJmcUlRcTd3qDT-11" target="jzuiydlJmcUlRcTd3qDT-17">
          <mxGeometry relative="1" as="geometry" />
        </mxCell>
        <mxCell id="jzuiydlJmcUlRcTd3qDT-11" value="Sd Notificaciomnes&amp;nbsp;" style="shape=umlFrame;whiteSpace=wrap;html=1;pointerEvents=0;" vertex="1" parent="1">
          <mxGeometry x="490" y="560" width="510" height="320" as="geometry" />
        </mxCell>
        <mxCell id="jzuiydlJmcUlRcTd3qDT-12" value="Notificacion al cliente&amp;nbsp;" style="text;html=1;align=center;verticalAlign=middle;resizable=0;points=[];autosize=1;strokeColor=none;fillColor=none;" vertex="1" parent="1">
          <mxGeometry x="620" y="711" width="140" height="30" as="geometry" />
        </mxCell>
        <mxCell id="jzuiydlJmcUlRcTd3qDT-25" style="edgeStyle=orthogonalEdgeStyle;rounded=0;orthogonalLoop=1;jettySize=auto;html=1;entryX=0.5;entryY=0;entryDx=0;entryDy=0;" edge="1" parent="1" source="jzuiydlJmcUlRcTd3qDT-13" target="jzuiydlJmcUlRcTd3qDT-24">
          <mxGeometry relative="1" as="geometry" />
        </mxCell>
        <mxCell id="jzuiydlJmcUlRcTd3qDT-13" value="Ref" style="shape=umlFrame;whiteSpace=wrap;html=1;pointerEvents=0;" vertex="1" parent="1">
          <mxGeometry x="300" y="1110" width="250" height="90" as="geometry" />
        </mxCell>
        <mxCell id="jzuiydlJmcUlRcTd3qDT-14" value="Notifica al cliente" style="text;html=1;align=center;verticalAlign=middle;resizable=0;points=[];autosize=1;strokeColor=none;fillColor=none;" vertex="1" parent="1">
          <mxGeometry x="368" y="1140" width="110" height="30" as="geometry" />
        </mxCell>
        <mxCell id="jzuiydlJmcUlRcTd3qDT-15" style="edgeStyle=orthogonalEdgeStyle;rounded=0;orthogonalLoop=1;jettySize=auto;html=1;entryX=0.447;entryY=0.013;entryDx=0;entryDy=0;entryPerimeter=0;" edge="1" parent="1" source="jzuiydlJmcUlRcTd3qDT-7" target="jzuiydlJmcUlRcTd3qDT-9">
          <mxGeometry relative="1" as="geometry" />
        </mxCell>
        <mxCell id="jzuiydlJmcUlRcTd3qDT-17" value="" style="rounded=0;whiteSpace=wrap;html=1;" vertex="1" parent="1">
          <mxGeometry x="360" y="990" width="120" height="20" as="geometry" />
        </mxCell>
        <mxCell id="jzuiydlJmcUlRcTd3qDT-23" style="edgeStyle=orthogonalEdgeStyle;rounded=0;orthogonalLoop=1;jettySize=auto;html=1;entryX=0.479;entryY=0.042;entryDx=0;entryDy=0;entryPerimeter=0;" edge="1" parent="1" source="jzuiydlJmcUlRcTd3qDT-17" target="jzuiydlJmcUlRcTd3qDT-13">
          <mxGeometry relative="1" as="geometry" />
        </mxCell>
        <mxCell id="jzuiydlJmcUlRcTd3qDT-24" value="" style="ellipse;html=1;shape=endState;fillColor=#000000;strokeColor=#ff0000;" vertex="1" parent="1">
          <mxGeometry x="405" y="1320" width="30" height="30" as="geometry" />
        </mxCell>
        <mxCell id="mlMtDtd8KD4YKthatAJH-2" value="sistema&amp;nbsp;" style="shape=umlLifeline;perimeter=lifelinePerimeter;whiteSpace=wrap;html=1;container=1;dropTarget=0;collapsible=0;recursiveResize=0;outlineConnect=0;portConstraint=eastwest;newEdgeStyle={&quot;curved&quot;:0,&quot;rounded&quot;:0};size=40;" vertex="1" parent="1">
          <mxGeometry x="-90" y="610" width="70" height="192" as="geometry" />
        </mxCell>
        <mxCell id="mlMtDtd8KD4YKthatAJH-3" value="usuario" style="shape=umlLifeline;perimeter=lifelinePerimeter;whiteSpace=wrap;html=1;container=1;dropTarget=0;collapsible=0;recursiveResize=0;outlineConnect=0;portConstraint=eastwest;newEdgeStyle={&quot;curved&quot;:0,&quot;rounded&quot;:0};" vertex="1" parent="1">
          <mxGeometry x="180" y="610" width="70" height="192" as="geometry" />
        </mxCell>
        <mxCell id="mlMtDtd8KD4YKthatAJH-4" value="" style="html=1;points=[[0,0,0,0,5],[0,1,0,0,-5],[1,0,0,0,5],[1,1,0,0,-5]];perimeter=orthogonalPerimeter;outlineConnect=0;targetShapes=umlLifeline;portConstraint=eastwest;newEdgeStyle={&quot;curved&quot;:0,&quot;rounded&quot;:0};" vertex="1" parent="mlMtDtd8KD4YKthatAJH-3">
          <mxGeometry x="30" y="112" width="10" height="80" as="geometry" />
        </mxCell>
        <mxCell id="mlMtDtd8KD4YKthatAJH-5" value="" style="html=1;verticalAlign=bottom;startArrow=oval;endArrow=block;startSize=8;curved=0;rounded=0;entryX=0;entryY=0;entryDx=0;entryDy=5;" edge="1" parent="1" target="mlMtDtd8KD4YKthatAJH-4">
          <mxGeometry relative="1" as="geometry">
            <mxPoint x="-50" y="727" as="sourcePoint" />
          </mxGeometry>
        </mxCell>
        <mxCell id="mlMtDtd8KD4YKthatAJH-7" value="sistema" style="shape=umlLifeline;perimeter=lifelinePerimeter;whiteSpace=wrap;html=1;container=1;dropTarget=0;collapsible=0;recursiveResize=0;outlineConnect=0;portConstraint=eastwest;newEdgeStyle={&quot;curved&quot;:0,&quot;rounded&quot;:0};size=40;" vertex="1" parent="1">
          <mxGeometry x="520" y="630" width="70" height="192" as="geometry" />
        </mxCell>
        <mxCell id="mlMtDtd8KD4YKthatAJH-8" value="usuario" style="shape=umlLifeline;perimeter=lifelinePerimeter;whiteSpace=wrap;html=1;container=1;dropTarget=0;collapsible=0;recursiveResize=0;outlineConnect=0;portConstraint=eastwest;newEdgeStyle={&quot;curved&quot;:0,&quot;rounded&quot;:0};" vertex="1" parent="1">
          <mxGeometry x="790" y="630" width="70" height="192" as="geometry" />
        </mxCell>
        <mxCell id="mlMtDtd8KD4YKthatAJH-9" value="" style="html=1;points=[[0,0,0,0,5],[0,1,0,0,-5],[1,0,0,0,5],[1,1,0,0,-5]];perimeter=orthogonalPerimeter;outlineConnect=0;targetShapes=umlLifeline;portConstraint=eastwest;newEdgeStyle={&quot;curved&quot;:0,&quot;rounded&quot;:0};" vertex="1" parent="mlMtDtd8KD4YKthatAJH-8">
          <mxGeometry x="30" y="112" width="10" height="80" as="geometry" />
        </mxCell>
        <mxCell id="mlMtDtd8KD4YKthatAJH-10" value="" style="html=1;verticalAlign=bottom;startArrow=oval;endArrow=block;startSize=8;curved=0;rounded=0;entryX=0;entryY=0;entryDx=0;entryDy=5;" edge="1" parent="1" target="mlMtDtd8KD4YKthatAJH-9">
          <mxGeometry relative="1" as="geometry">
            <mxPoint x="560" y="747" as="sourcePoint" />
          </mxGeometry>
        </mxCell>
      </root>
    </mxGraphModel>
  </diagram>
</mxfile>
